<mxfile host="drawio-plugin" modified="2024-03-22T08:54:06.641Z" agent="5.0 (Windows NT 10.0; Win64; x64) AppleWebKit/537.36 (KHTML, like Gecko) Chrome/111.0.0.0 Safari/537.36" etag="wsgcmN4InBzi0DI0yGZd" version="20.5.3" type="embed"><diagram id="23iRSUPoRavnBvh4doch" name="Page-1"><mxGraphModel dx="413" dy="333" grid="1" gridSize="10" guides="1" tooltips="1" connect="1" arrows="1" fold="1" page="1" pageScale="1" pageWidth="827" pageHeight="1169" math="0" shadow="0"><root><mxCell id="0"/><mxCell id="1" parent="0"/><mxCell id="2" value="&lt;p style=&quot;margin:0px;margin-top:4px;text-align:center;&quot;&gt;&lt;i&gt;&amp;lt;&amp;lt;Interface&amp;gt;&amp;gt;&lt;/i&gt;&lt;br&gt;&lt;b&gt;Workshop&lt;/b&gt;&lt;/p&gt;&lt;hr size=&quot;1&quot;&gt;&lt;p style=&quot;margin:0px;margin-left:4px;&quot;&gt;+ assembling()&lt;br style=&quot;padding: 0px; margin: 0px;&quot;&gt;+ packing()&lt;br style=&quot;padding: 0px; margin: 0px;&quot;&gt;+ labeling()&lt;br style=&quot;padding: 0px; margin: 0px;&quot;&gt;+ shipping()&lt;br&gt;&lt;/p&gt;" style="verticalAlign=top;align=left;overflow=fill;fontSize=12;fontFamily=Helvetica;html=1;" vertex="1" parent="1"><mxGeometry x="480" y="120" width="160" height="110" as="geometry"/></mxCell><mxCell id="3" value="ElectronicWorkshop" style="swimlane;fontStyle=1;align=center;verticalAlign=top;childLayout=stackLayout;horizontal=1;startSize=26;horizontalStack=0;resizeParent=1;resizeParentMax=0;resizeLast=0;collapsible=1;marginBottom=0;" vertex="1" parent="1"><mxGeometry x="440" y="320" width="160" height="96" as="geometry"/></mxCell><mxCell id="6" value="+ assembling()&#10;+ packing()&#10;+ labeling()&#10;+ shipping()" style="text;strokeColor=none;fillColor=none;align=left;verticalAlign=top;spacingLeft=4;spacingRight=4;overflow=hidden;rotatable=0;points=[[0,0.5],[1,0.5]];portConstraint=eastwest;" vertex="1" parent="3"><mxGeometry y="26" width="160" height="70" as="geometry"/></mxCell><mxCell id="7" value="ToyWorkshop" style="swimlane;fontStyle=1;align=center;verticalAlign=top;childLayout=stackLayout;horizontal=1;startSize=26;horizontalStack=0;resizeParent=1;resizeParentMax=0;resizeLast=0;collapsible=1;marginBottom=0;" vertex="1" parent="1"><mxGeometry x="640" y="320" width="160" height="96" as="geometry"/></mxCell><mxCell id="10" value="+ assembling()&#10;+ packing()&#10;+ labeling()&#10;+ shipping()" style="text;strokeColor=none;fillColor=none;align=left;verticalAlign=top;spacingLeft=4;spacingRight=4;overflow=hidden;rotatable=0;points=[[0,0.5],[1,0.5]];portConstraint=eastwest;" vertex="1" parent="7"><mxGeometry y="26" width="160" height="70" as="geometry"/></mxCell><mxCell id="11" value="MeetWorkshop" style="swimlane;fontStyle=1;align=center;verticalAlign=top;childLayout=stackLayout;horizontal=1;startSize=26;horizontalStack=0;resizeParent=1;resizeParentMax=0;resizeLast=0;collapsible=1;marginBottom=0;" vertex="1" parent="1"><mxGeometry x="240" y="320" width="160" height="96" as="geometry"/></mxCell><mxCell id="12" value="+ assembling()&#10;+ packing()&#10;+ labeling()&#10;+ shipping()" style="text;strokeColor=none;fillColor=none;align=left;verticalAlign=top;spacingLeft=4;spacingRight=4;overflow=hidden;rotatable=0;points=[[0,0.5],[1,0.5]];portConstraint=eastwest;" vertex="1" parent="11"><mxGeometry y="26" width="160" height="70" as="geometry"/></mxCell><mxCell id="13" value="CarWorkshop" style="swimlane;fontStyle=1;align=center;verticalAlign=top;childLayout=stackLayout;horizontal=1;startSize=26;horizontalStack=0;resizeParent=1;resizeParentMax=0;resizeLast=0;collapsible=1;marginBottom=0;" vertex="1" parent="1"><mxGeometry x="40" y="320" width="160" height="96" as="geometry"/></mxCell><mxCell id="14" value="+ assembling()&#10;+ packing()&#10;+ labeling()&#10;+ shipping()" style="text;strokeColor=none;fillColor=none;align=left;verticalAlign=top;spacingLeft=4;spacingRight=4;overflow=hidden;rotatable=0;points=[[0,0.5],[1,0.5]];portConstraint=eastwest;" vertex="1" parent="13"><mxGeometry y="26" width="160" height="70" as="geometry"/></mxCell><mxCell id="15" value="Actor" style="shape=umlActor;verticalLabelPosition=bottom;verticalAlign=top;html=1;outlineConnect=0;" vertex="1" parent="1"><mxGeometry x="180" y="130" width="30" height="60" as="geometry"/></mxCell><mxCell id="16" value="Use" style="endArrow=open;endSize=12;dashed=1;html=1;rounded=0;exitX=1;exitY=0.3333333333333333;exitDx=0;exitDy=0;exitPerimeter=0;entryX=0;entryY=0.25;entryDx=0;entryDy=0;edgeStyle=orthogonalEdgeStyle;" edge="1" parent="1" source="15" target="2"><mxGeometry width="160" relative="1" as="geometry"><mxPoint x="250" y="270" as="sourcePoint"/><mxPoint x="410" y="270" as="targetPoint"/></mxGeometry></mxCell><mxCell id="17" value="" style="endArrow=block;dashed=1;endFill=0;endSize=12;html=1;rounded=0;exitX=0.5;exitY=0;exitDx=0;exitDy=0;entryX=0.888;entryY=1.018;entryDx=0;entryDy=0;entryPerimeter=0;edgeStyle=orthogonalEdgeStyle;" edge="1" parent="1" source="7" target="2"><mxGeometry width="160" relative="1" as="geometry"><mxPoint x="350" y="280" as="sourcePoint"/><mxPoint x="510" y="280" as="targetPoint"/></mxGeometry></mxCell><mxCell id="18" value="" style="endArrow=block;dashed=1;endFill=0;endSize=12;html=1;rounded=0;exitX=0.5;exitY=0;exitDx=0;exitDy=0;entryX=0.631;entryY=1.009;entryDx=0;entryDy=0;entryPerimeter=0;edgeStyle=orthogonalEdgeStyle;" edge="1" parent="1" source="3" target="2"><mxGeometry width="160" relative="1" as="geometry"><mxPoint x="350" y="280" as="sourcePoint"/><mxPoint x="510" y="280" as="targetPoint"/><Array as="points"><mxPoint x="520" y="300"/><mxPoint x="581" y="300"/></Array></mxGeometry></mxCell><mxCell id="19" value="" style="endArrow=block;dashed=1;endFill=0;endSize=12;html=1;rounded=0;exitX=0.5;exitY=0;exitDx=0;exitDy=0;entryX=0.388;entryY=1.018;entryDx=0;entryDy=0;entryPerimeter=0;edgeStyle=orthogonalEdgeStyle;" edge="1" parent="1" source="11" target="2"><mxGeometry width="160" relative="1" as="geometry"><mxPoint x="350" y="280" as="sourcePoint"/><mxPoint x="510" y="280" as="targetPoint"/><Array as="points"><mxPoint x="320" y="280"/><mxPoint x="542" y="280"/></Array></mxGeometry></mxCell><mxCell id="20" value="" style="endArrow=block;dashed=1;endFill=0;endSize=12;html=1;rounded=0;exitX=0.5;exitY=0;exitDx=0;exitDy=0;entryX=0.125;entryY=1;entryDx=0;entryDy=0;entryPerimeter=0;edgeStyle=orthogonalEdgeStyle;" edge="1" parent="1" source="13" target="2"><mxGeometry width="160" relative="1" as="geometry"><mxPoint x="350" y="280" as="sourcePoint"/><mxPoint x="510" y="280" as="targetPoint"/><Array as="points"><mxPoint x="120" y="260"/><mxPoint x="500" y="260"/></Array></mxGeometry></mxCell></root></mxGraphModel></diagram></mxfile>